<svg width="16" height="12" viewBox="0 0 16 12" fill="none" xmlns="http://www.w3.org/2000/svg">
<path fill-rule="evenodd" clip-rule="evenodd" d="M0 2C0 1.46957 0.210714 0.960859 0.585786 0.585786C0.960859 0.210714 1.46957 0 2 0H14C14.5304 0 15.0391 0.210714 15.4142 0.585786C15.7893 0.960859 16 1.46957 16 2V10C16 10.5304 15.7893 11.0391 15.4142 11.4142C15.0391 11.7893 14.5304 12 14 12H2C1.46957 12 0.960859 11.7893 0.585786 11.4142C0.210714 11.0391 0 10.5304 0 10V2ZM2.5 3C2.36739 3 2.24021 3.05268 2.14645 3.14645C2.05268 3.24021 2 3.36739 2 3.5V4.5C2 4.63261 2.05268 4.75979 2.14645 4.85355C2.24021 4.94732 2.36739 5 2.5 5H4.5C4.63261 5 4.75979 4.94732 4.85355 4.85355C4.94732 4.75979 5 4.63261 5 4.5V3.5C5 3.36739 4.94732 3.24021 4.85355 3.14645C4.75979 3.05268 4.63261 3 4.5 3H2.5ZM2.5 6C2.36739 6 2.24021 6.05268 2.14645 6.14645C2.05268 6.24021 2 6.36739 2 6.5C2 6.63261 2.05268 6.75979 2.14645 6.85355C2.24021 6.94732 2.36739 7 2.5 7H7.5C7.63261 7 7.75979 6.94732 7.85355 6.85355C7.94732 6.75979 8 6.63261 8 6.5C8 6.36739 7.94732 6.24021 7.85355 6.14645C7.75979 6.05268 7.63261 6 7.5 6H2.5ZM2.5 8C2.36739 8 2.24021 8.05268 2.14645 8.14645C2.05268 8.24021 2 8.36739 2 8.5C2 8.63261 2.05268 8.75979 2.14645 8.85355C2.24021 8.94732 2.36739 9 2.5 9H3.5C3.63261 9 3.75979 8.94732 3.85355 8.85355C3.94732 8.75979 4 8.63261 4 8.5C4 8.36739 3.94732 8.24021 3.85355 8.14645C3.75979 8.05268 3.63261 8 3.5 8H2.5ZM5.5 8C5.36739 8 5.24021 8.05268 5.14645 8.14645C5.05268 8.24021 5 8.36739 5 8.5C5 8.63261 5.05268 8.75979 5.14645 8.85355C5.24021 8.94732 5.36739 9 5.5 9H6.5C6.63261 9 6.75979 8.94732 6.85355 8.85355C6.94732 8.75979 7 8.63261 7 8.5C7 8.36739 6.94732 8.24021 6.85355 8.14645C6.75979 8.05268 6.63261 8 6.5 8H5.5ZM8.5 8C8.36739 8 8.24021 8.05268 8.14645 8.14645C8.05268 8.24021 8 8.36739 8 8.5C8 8.63261 8.05268 8.75979 8.14645 8.85355C8.24021 8.94732 8.36739 9 8.5 9H9.5C9.63261 9 9.75979 8.94732 9.85355 8.85355C9.94732 8.75979 10 8.63261 10 8.5C10 8.36739 9.94732 8.24021 9.85355 8.14645C9.75979 8.05268 9.63261 8 9.5 8H8.5ZM11.5 8C11.3674 8 11.2402 8.05268 11.1464 8.14645C11.0527 8.24021 11 8.36739 11 8.5C11 8.63261 11.0527 8.75979 11.1464 8.85355C11.2402 8.94732 11.3674 9 11.5 9H12.5C12.6326 9 12.7598 8.94732 12.8536 8.85355C12.9473 8.75979 13 8.63261 13 8.5C13 8.36739 12.9473 8.24021 12.8536 8.14645C12.7598 8.05268 12.6326 8 12.5 8H11.5Z" fill="white"/>
</svg>
