<svg width="17" height="22" viewBox="0 0 17 22" fill="none" xmlns="http://www.w3.org/2000/svg">
<path d="M10.8148 22L6.43484 14.05H5.20484V22H0.0748438V0.939999H8.68484C10.3448 0.939999 11.7548 1.23 12.9148 1.81C14.0948 2.39 14.9748 3.19 15.5548 4.21C16.1348 5.21 16.4248 6.33 16.4248 7.57C16.4248 8.97 16.0248 10.22 15.2248 11.32C14.4448 12.42 13.2848 13.2 11.7448 13.66L16.6048 22H10.8148ZM5.20484 10.42H8.38484C9.32484 10.42 10.0248 10.19 10.4848 9.73C10.9648 9.27 11.2048 8.62 11.2048 7.78C11.2048 6.98 10.9648 6.35 10.4848 5.89C10.0248 5.43 9.32484 5.2 8.38484 5.2H5.20484V10.42Z" fill="black"/>
</svg>
