<svg width="20" height="18" viewBox="0 0 20 18" fill="none" xmlns="http://www.w3.org/2000/svg">
<path d="M18.75 7.74998H3.925L8.4625 2.29998C8.67467 2.04471 8.77675 1.71561 8.74628 1.38507C8.7158 1.05454 8.55527 0.749652 8.3 0.537478C8.04473 0.325305 7.71563 0.223228 7.3851 0.253702C7.05456 0.284177 6.74967 0.444708 6.5375 0.699979L0.2875 8.19998C0.245451 8.25963 0.207849 8.3223 0.175 8.38748C0.175 8.44998 0.175 8.48748 0.0875002 8.54998C0.0308421 8.6933 0.0011764 8.84587 0 8.99998C0.0011764 9.15409 0.0308421 9.30665 0.0875002 9.44998C0.0875002 9.51248 0.0874998 9.54998 0.175 9.61248C0.207849 9.67765 0.245451 9.74032 0.2875 9.79998L6.5375 17.3C6.65503 17.4411 6.8022 17.5546 6.96856 17.6323C7.13491 17.7101 7.31636 17.7503 7.5 17.75C7.79207 17.7505 8.07511 17.6488 8.3 17.4625C8.42657 17.3575 8.5312 17.2287 8.60789 17.0832C8.68458 16.9378 8.73183 16.7787 8.74692 16.6149C8.76202 16.4512 8.74466 16.2861 8.69586 16.1291C8.64705 15.9721 8.56775 15.8263 8.4625 15.7L3.925 10.25H18.75C19.0815 10.25 19.3995 10.1183 19.6339 9.88386C19.8683 9.64944 20 9.3315 20 8.99998C20 8.66846 19.8683 8.35052 19.6339 8.1161C19.3995 7.88167 19.0815 7.74998 18.75 7.74998Z" fill="#6A4029"/>
</svg>
