<svg width="20" height="18" viewBox="0 0 20 18" fill="none" xmlns="http://www.w3.org/2000/svg">
<path d="M1.25 7.74998H16.075L11.5375 2.29998C11.3253 2.04471 11.2232 1.71561 11.2537 1.38507C11.2842 1.05454 11.4447 0.749652 11.7 0.537478C11.9553 0.325305 12.2844 0.223228 12.6149 0.253702C12.9454 0.284177 13.2503 0.444708 13.4625 0.699979L19.7125 8.19998C19.7545 8.25963 19.7922 8.3223 19.825 8.38748C19.825 8.44998 19.825 8.48748 19.9125 8.54998C19.9692 8.6933 19.9988 8.84587 20 8.99998C19.9988 9.15409 19.9692 9.30665 19.9125 9.44998C19.9125 9.51248 19.9125 9.54998 19.825 9.61248C19.7922 9.67765 19.7545 9.74032 19.7125 9.79998L13.4625 17.3C13.345 17.4411 13.1978 17.5546 13.0314 17.6323C12.8651 17.7101 12.6836 17.7503 12.5 17.75C12.2079 17.7505 11.9249 17.6488 11.7 17.4625C11.5734 17.3575 11.4688 17.2287 11.3921 17.0832C11.3154 16.9378 11.2682 16.7787 11.2531 16.6149C11.238 16.4512 11.2553 16.2861 11.3041 16.1291C11.3529 15.9721 11.4322 15.8263 11.5375 15.7L16.075 10.25H1.25C0.918479 10.25 0.600536 10.1183 0.366116 9.88386C0.131695 9.64944 0 9.3315 0 8.99998C0 8.66846 0.131695 8.35052 0.366116 8.1161C0.600536 7.88167 0.918479 7.74998 1.25 7.74998Z" fill="white"/>
</svg>
